<svg xmlns="http://www.w3.org/2000/svg" xml:space="preserve" height="24" viewBox="0 0 24 24" width="24"><g transform="matrix(1.25 0 0 -1.25 -335.22 418.64)"><path d="m277.8 334.56c-5.2414 0-9.4911-4.2496-9.4911-9.4922 0-4.1937 2.7195-7.7511 6.4914-9.0068 0.47491-0.0868 0.64797 0.20627 0.64797 0.458 0 0.22492-0.008 0.82219-0.0128 1.6141-2.6402-0.57338-3.1973 1.2726-3.1973 1.2726-0.43178 1.0961-1.0541 1.388-1.0541 1.388-0.86183 0.5891 0.0653 0.57745 0.0653 0.57745 0.95272-0.0676 1.4538-0.97836 1.4538-0.97836 0.84668-1.4503 2.2219-1.0314 2.7626-0.78897 0.0862 0.61358 0.33097 1.032 0.60251 1.2691-2.1076 0.2395-4.3237 1.0541-4.3237 4.6913 0 1.036 0.37002 1.8833 0.9772 2.547-0.0979 0.24007-0.42363 1.205 0.0926 2.512 0 0 0.79714 0.25522 2.6105-0.97311 0.75693 0.21035 1.5692 0.31582 2.3763 0.31932 0.80589-0.004 1.6182-0.10897 2.3763-0.31932 1.8122 1.2283 2.6076 0.97311 2.6076 0.97311 0.51802-1.307 0.19229-2.272 0.0944-2.512 0.60835-0.66369 0.97604-1.5109 0.97604-2.547 0-3.6465-2.2195-4.4489-4.3342-4.6838 0.34088-0.29309 0.64447-0.87229 0.64447-1.758 0-1.2685-0.0117-2.2923-0.0117-2.6035 0-0.25406 0.17074-0.54948 0.65264-0.45683 3.7689 1.258 6.4861 4.8131 6.4861 9.0056 0 5.2426-4.2503 9.4922-9.4929 9.4922" fill-rule="evenodd" fill="#1b1817"/></g></svg>
