<svg xmlns:sketch="http://www.bohemiancoding.com/sketch/ns" xmlns:rdf="http://www.w3.org/1999/02/22-rdf-syntax-ns#" xmlns="http://www.w3.org/2000/svg" height="22" width="22" version="1.1" xmlns:cc="http://creativecommons.org/ns#" viewBox="0 0 21.999996 22" xmlns:dc="http://purl.org/dc/elements/1.1/">
 <title>btn_google+_signin_dark_normal_web</title>
 <desc>Created with Sketch.</desc>
 <path d="m7 10v2.4h3.97c-0.16 1.03-1.2 3.02-3.97 3.02-2.39 0-4.34-1.98-4.34-4.42s1.95-4.42 4.34-4.42c1.36 0 2.27 0.58 2.79 1.08l1.9-1.83c-1.22-1.14-2.8-1.83-4.69-1.83-3.87 0-7 3.13-7 7s3.13 7 7 7c4.04 0 6.72-2.84 6.72-6.84 0-0.46-0.05-0.81-0.11-1.16h-6.61z" sketch:type="MSShapeGroup" fill="#dc4e41"/>
 <path d="m22 10h-2v-2h-2v2h-2v2h2v2h2v-2h2" sketch:type="MSShapeGroup" fill="#dc4e41"/>
</svg>
